/* XPM */
static char *_f8723c00bdf4a2a9149852e1f033cf0dC00JTX2H4eNDYKK[] = {
/* columns rows colors chars-per-pixel */
"106 106 92 1 ",
"  c #010000",
". c #0B0604",
"X c #130A06",
"o c #170C08",
"O c #1A0E09",
"+ c #1E100B",
"@ c #22120C",
"# c #29170F",
"$ c #2B1710",
"% c #331C13",
"& c #391F15",
"* c #3E2117",
"= c #3F2218",
"- c #402217",
"; c #43241A",
": c #48271C",
"> c #4C291D",
", c #512C1F",
"< c #542D21",
"1 c #582F22",
"2 c #573021",
"3 c #5A3124",
"4 c #623526",
"5 c #673927",
"6 c #693A27",
"7 c #653728",
"8 c #683929",
"9 c #6B3B2A",
"0 c #6C3B28",
"q c #6E3C29",
"w c #6F3D2B",
"e c #723E2C",
"r c #74402B",
"t c #74402D",
"y c #75402D",
"u c #76412D",
"i c #78422E",
"p c #7A432E",
"a c #7A432F",
"s c #7C442F",
"d c #7E442F",
"f c #7D4530",
"g c #7E4530",
"h c #7F4630",
"j c #80462F",
"k c #814630",
"l c #814730",
"z c #804631",
"x c #814731",
"c c #824731",
"v c #864831",
"b c #874931",
"n c #844832",
"m c #854832",
"M c #844932",
"N c #864A32",
"B c #874A32",
"V c #874A33",
"C c #884A33",
"Z c #894B33",
"A c #8A4B33",
"S c #8B4C33",
"D c #8A4C34",
"F c #8B4C34",
"G c #8C4C34",
"H c #8D4D34",
"J c #8E4D35",
"K c #8E4E35",
"L c #8F4F35",
"P c #8E4E36",
"I c #8F4E36",
"U c #8F4F36",
"Y c #904F36",
"T c #904F37",
"R c #905036",
"E c #915036",
"W c #925138",
"Q c #935138",
"! c #945239",
"~ c #95533A",
"^ c #97543B",
"/ c #98553C",
"( c #99563C",
") c #9C583F",
"_ c #9D583F",
"` c #9D5940",
"' c #9E5940",
"] c #9E5A41",
"[ c #9F5A41",
"{ c #A05A41",
"} c #A05B41",
"| c #A05B42",
/* pixels */
";;=;;;;;;*;*;;=;;;;;*;;;*;*;;;;;=;;;;;=;;;;=;=;;;;=;;;;=;;;;;;=;;;;;*;;;;;*;;;;=;=;;;;=;;;;;=;;;;=;=;*;=;;",
";;;;;;;;;;;;;;;;;;;;;;;;;;;;;;;;;;;;;;;;;;;;;;;;;;;;;;;;;;;;;;;;;;;;;;;;;;;;;;;;;;;;;;;;;;;;;;;;;;;;;;;;;;",
";;;;:;;::;:::;::;::;;;:;::::;::;;;;;::::;::;:;;;:;::;::;;;;;;::::;:;;;;;;:::;::;:;;;:;:::;:;;;;;;;::;::;;=",
";;;;,HEE~~~~~~~~/!/~/!//~~~!W////~//~~~!/!~//!//!!K[/W//^^/^!^!!!/!/////~~~!/W//~~/~~!Y[~~~~/////~UES2;;;;",
";;;3;<HY/[||[[||||||||}}}[[[|||||||}[[[[}}}}}}}}}[}||||||[|[[[[[||||||}}[}[[||||||}}[[[[||||||}||EUS<;3;;;",
";;;K3;,HKW!W~W!WWW!WE!E!~!WW!WWT!WWT~W/W!!W!!W!!^!WW!WW!~W~T^WW~!!E~!E!!~!WW!W!WT!WT~!W!WEW~EE~EEUD<;3S;;;",
";;;KK3;<SKKKKKUKKKKKKKKYDDTKKTKKKKKKUUKDKKKKKKHKDKDKKKKKKKKKUUTDKKKKKKKKEUUKUKKKTKKKUDTDHKHUEKLSKD<;3HH;;;",
";;;W!K3;<SKKKKKK;X%ZKKKKEKUUKKKKTKKKKDUUKKKKKKHYKTTKKKKKKKKKKDTTKKKKKKKKSKKKKKKKKKKKUWx$o>LHUKLUD<;3USM;;;",
";;;![EK3;<HUUKK3   -YKKKKKKKKKKKKKKKKKKKKKKKKKKKKHKKYKKKKKKKUKKKHKKYHKHKKKKKKKKKKKKKKK%   qKHKKZ2;3KSdM;;=",
";;;![!KK3;,SHHE,   %KKKKKKKKKKKKKKKKKKKKYKKKYKKKKYKKHKKKKKKKKKKKYKKKKKEKKKYKKKKKKKKTKY@   3KUHH,;3KKStd;;;",
";;;!|!KKK3;2HHUlX  qKKKKKEKKKKKKKKKKKKKKYKKKKKYKKKHKKKYKKKUKKKKKKKKKKHKKKKKKYKKKKKKKKK4  XHHHS3;3DUKDrd;;;",
";;;!|!HLUH3;,SLHM6MHKKKKKHKYKKKKKKKKKKKKKKKKKKKKYKYKKKKKKKKKKKKUKKKKKYKKKKKKKKKKKKKKKKYj6HKKS2-3KKKUDrc;;;",
";;;E|~LULHH3;2HLYHKYKEKKKKKKYKKYKTYKKKKKKKKKKKYKHYHHKKKYKYYYKKEKKKKYKYKKKYYKYKKKKTYKYKYYKKYS2;3HKKKKDtM;;=",
";;;!_!LHHLLH3;,SjtttttttttttrtttpetepepetetetttetttttttteteettpeetttttttetteeeepttteteeetMK,;3HKHUHUDtd;;;",
";;;!|~KN,2bHL3;2HMdddddddcjjddddffcffgddcdddjjjjdjjjjdddjjddffffjdddjdddddcjddggcfffjjddHH,;3HHj,,SKDtd;;;",
";;;![!K@  #LHH3;;;:::::;:::;:,<3<<<1<1<1<3<31,1,<<3<<<1<1<3<<11<3,1<3<<21<1<,:::;:::::;::;;3HKH+  %KStx;;;",
";;;~[!N    MKMK;:<,<<,2,<<<<>;;=========*&&;;;;*;***&=&&;&=&&&;;;&;&===&==&:;:<<2,3,,<<<<;;KWWf    UKtd;;;",
";;;E|~Uo  OKStZ:,KKKYKKEKE//E,;@XXXXXXXoXXXXXXXoXXXXXXoXXoXXooXXXXXXXXXXXX$;<JTTKHHKEYKKK<:Y}!A.  @KStx;;;",
";;;![!Kp**dKKtc>,KKKKEKKKKE|}E<;;;::;;;:;;%;<3>;:;;::::;:::;&%:3<:::::;::;;<F[[TKKHHKYKKK,>![WKp*=xKDrl;;;",
";;;E[EKKKKKKStc:>KYKYt,pKKKE}[K<;<3333333>;37e33333333333333:;3ew3333333<;<K[[TFUKS43ZKKK>>!}WKKDKUKDrx;;;",
";;;!|!UUKKKKKtj>,KKK6   tKKKY[[E<;<<33333>;18e73333333333333:;3ew333332<;<K[[FKTHK*  +KKK>:^}WKKKKKKDtx;;=",
";;;!|~KKKKKKHex>,KKK*   ;KKKKW[[[;;<33333>;18e73333333333333::3ew33331<;<V[[WFJKKK    tKK<>!}!KKKKKKDtf;;;",
";;;~[!KKKKKKHex:>KKK,   4KKKKKW}[M<;<3333>;18e73333333333333:;3ee3333<;<K[[TJJTTKU@  .ZKK>:^}!KKKEKKHtx;;;",
";;;~|WKKKKKKKtx>,KKKK:#,KKKKKKKE_[[<*<333>;18e33333333333333:;3e8333<;<U[[KKFTKFKEd%$eKKK<:^}!KKKKKKDtx;;;",
";;;E|~UKKKUKDtx>,KKKKKKKEKKKKUKKY[}T<;<13>;37e33333333333333;;3eq33<;<D[[EKKHUKKKKHUHHUHY>>!}!KKKKKKDtx;;;",
";;;W[!KKKKKKDtx:,KKKKKKKKKKKKKUKc['}T<;<3>;38e33333333333333;;3eq3<;<K[[UKKUUKKKKKLHKUHUK>>!}!KKKKKKDrf;;;",
";;;~[~KHKUKKDtx>,HMYKKKKKKKKKKKKKKY}[T<;<:;18e73333333333333>;3eq<;<U[[KKKKKUHKKUKKUUHLdx,>!}!KKKKKKSrx;;;",
";;;![!ULKKKKKex>,YtMKKKKKEKKKKUKZYKT['J<;:;38e73333<33333333:;3e4;<D[[KKKKHUHLKHHKKKHUltx,>!}EKKKKKUKrh;;;",
";;;![~HUKKKKKrx::ZjeZHKKKKKEKKKKKFJKT'[T;=;38t73333333333333:;37;<K[[EKKKKKKKKUUKKKKUhtdM:>/}!KKKUKUHth;;;",
";;;![!UHKKKKDrM<;>MdtxKKKKKKKKKKKTKTTT[[_;;:8t33333333333333:;<;<D[[EKKKKKUKKKUHKKKUdthM>;<!}EKKKHKKStx;;;",
";;;W|!UHUUHKDtx3;-,MjeMKKKKKKKKKKTTFFTT[_[,;3t33333333333333;;;3U[[EUKUKKKKKHKKKKKUftpx:-;3!}!KKKKEKStx;;;",
";;;W|~HUHULHDtx3-@;>MlrMKKKKKKKUKJTFTJFT[_[3;73<333333333333;;;[[[EKKKKKKKKKUKKKKKhrhN>;@;3!}!YKKKHKUed;;=",
";;;!|!KKKKKKZpZ3*X+;>DfecWDTTTTFKKKKKKKKW[[K<;<333333333333>;:Z[[WKKKKKKKYKKKKKKKcefM>;+X;3!|!KKKKKKDtx;;;",
";;;!|WEKKKKKZtj3;OX+;>McexKKFFTPKKKKKKKKKW[[K<;<3333333333<=<[[[WYKKKKKKKKKKKKKKctfV>;+X+;3!}!KHYKKKDtd;;;",
";;;!|!HKKKKKHej3>>OX@;>MfecTTDTTKKKKKKTKKKW[|E<;<3333333<,;:K[[KKKKKKKKKKKKKKKKcrpM:;@XO<:3!}WYYKKKKDtd;;;",
";;;!|!EKKKKKHrj3>1>OX+;>FfecTDDVKYKKKKKKKKKW[[K<;<333333<;<[[[WKKKKKKKKKKKKKKKcefc::+XO,3>3^}!KHKKKKKtc;;-",
";;;E|!HKKKKKDtx3>33<OX+;:Ffef[nnKKKKKTKKKKKKY[[U<;<3333<;<D[[WFFKKKKKKKKKYKKKxefM,;@XO<33:3!}!KKKKKKDtx;;;",
";;;W|!KKKKKKDtx3:131<OXO;>FfefD`YKKKKKKKKKKKKE[[K<;<33<;<D[[KKFTKKKYKKTKKKKKxtdM>;@oO,3<3>3/}!KKKKYKDtc;;;",
";;;~}!KKHYKKDtd3:3333>OX@;:Fwwf[KKKKKKKKKKKKKKU[[K<;<<;<T[[TTFTTKKYKKKKKKKKxtfx>;+oO<3333:3W|TTKKKKKStx;;*",
";;;!|~KKKKKKStx3>1333<:oo@;:`fwfKKKKYKKKKKKKKKKW[[W<;;<D[[WKKKTFKKKKKKKKKKMtfx>;+X+313333>3/|!KKKKKKKed;;;",
";;;!|!KKKKKKDec3:33333<&oo#;>VftcKKKKKYKKKKKKKKUT[[K<<K[[TUKKKKKKYKKKKKKFcegM>;OXO6533333:3[}WKKKKHKKtc;;;",
";;;!|!KKTKKKDtc3>33331<;:o.@;>VftcKKKKKKKKKKKKKKKT/KfK[}TTKKKKUKKKKKKKKKcegm,;@XO1e533333:3K}!KKKKUKStx;;-",
";;;W|!KKKKKKDec3:33333<;<<oX+;>VfecKKKKKKKEKKKKKKKKmK[[TKKKKEKKKKKKKKYKcegm>&@XX;4e733333:3^}WKKKHKKDtd;;;",
";;;W|~KKKKKTDpc3>33333<;<77oo+;>FctcEKKKKKKKKKKKKKmK[[WKDTKKKKKKKKKYKKcefc>:@XO&>5e733333:3!}!KKKEKKDtx;;;",
";;;!|!KKKKKKKec3:33333<;<7t<oo+;:FfexYKKKUKKKEKKKMK}[WKKKKKKKKKKKKKKKcefc>;+XO>;>7p733333>3^[!TKKKKKDtx;;;",
";;;!|!KKKTKKYef3:33333<;>7t71ooO::MfecKKKKKKKKKKmK[[WKKKKKKKKKKKKKKKcefm:;+XO,3;>4e733333:3W}WKKKKKKKrf;;*",
";;;!}!KKKKKKFeM3:33333<;<7e73>ooO;>VfexKKKKKKKKVK[[TKKKKKKKKKKKKKKKcefM>=+oo>3<;>4e733333>3^|WKKKKKKDtx;;;",
";;;!}!KEDWKFFpM3:33333<;>7t733,oX@;>MctxKKKUKKME[[TKKKKKKKKWKKKKKYcefm>;+oo<333;>4e833333:3^|!KKKKKKKec;;;",
";;;W|!HKKKKUSrx3>33333<;>7e7333:OX+;>ZcecKKKKZK[[TKKKKKKKKKKKKKKYcedM>;+XO,133<;>4r733333>3~}!KKKKKKDtc;;;",
";;;W|!UKKKKKKrx3:33333<;<4w73333,OX+;>MfecKKME[|TKTKKKKKKKKKKKKKcepM>;+XO,33333;>4r732333>3~}~KKKKKEDtf;;;",
";;;!|!KKKKKKKtx3>33333<;,7e733331<OXO;>mffKMK}|WKKKKKKKKKKKKKKKVegM>-+XO>133333;>4r733333:3!}EUHKKKKStx;;;",
";;;!|!UKKUKKHtf3:33333<;<7e7333331,OX@;>MKcK[}WKYKKKKKYKWKKKKKMtpm>;@XO,333333<;>4r433333>3/|~HUKKKKKrf;;;",
";;;~|!KKKKKKStc3:33333<;>7t73333313>OXO;>pK}|WKKKKKKKWKKKKKKKMefM>;+XO:3333333<;<4p733333:3/|!HHKEKKKtd;;=",
";;;!|!KUKKKKDtj3>33333<;<7e733333333<O$;<Y[}WKKKKKKKKKKKKKKKMtdMf<;@O>333333333;:4r733333:3!|EUHKKKKDtc;;;",
";;;!|!KKKKKKHtM3:33333<;>7w7333333331:;<K[[YKKKKKKKKKKKKKKKcepMDFK<;>3333333333;>7r733333>3/}!KKKKKKDtx;;;",
"=;;W|!KKKKKKStc1:33333<;<7e733333333<;<K[}WKKUKKKKKKKKKKKKMefMZK[[E<;<33333333<;>3t733333>3!}!KHKKKKDtc;;;",
";;;!|!KKKKKKKtx3,13333<;<7e73333333,;<K[}WKKKKKKKYKKKKKKKMefMmKKT[[K<;<33333131;<3t733333:3~|!KUKKKKKtx;;;",
";;;!|!KKKKKKStj3:33333<;,7e7333333<;<K[[WKKKKKKKKKKKKKKKZefMZKKKKU[[K<;<333333<;,7t733333>3~{!HHYKKYDtd;;;",
";;;~|!KKKKKKHeM3:33333<;,4e733333<;<D[[WEKKKKKKUKKKKKKKcefMSKKKKKKK[[K<;<333331;:3f733333>3~}!EEHKKKDtx;;;",
";;;!|!KKEKKKStj3:33333<;<7e43331<;<K[[WDKKKKKKKKKKKKKKmefMZKKKKKKKKU[[K<;<33331;,4e433333>3~}EHHKKKKDtd;;*",
";;;E}!KKKKKKStx3:33333<;,7e7333<;<T[[!KKKKKKKKKKKKYKKMecZZKKKKKKUDUKP```<=<3331;,7t733333>3~|!EKKHKKKex;;;",
";;;W}!KKKKKKStj3:333331;,4e733<:<D[|WTKDKKUKKKKKKKKKMedMZKKKKKKKUDUKVV``[:;<331;>3t733333:3~|EHKKYKKDtx;;;",
";;;!}!KKKKKKZpM3:33313<;<3e7<<;<D}[TTKWDKKEKKKKKKKKZedZMKKKKKYKKTUTDTVT```<=<33;>4t733333:3!|EKKKKKEKed;;;",
";;;!}!YKKKKKStj3:33333<;<7e7<;<K}|TKKKKYKKKKKKKKKKMepmZKKKKKKKKKDPTTTTVf```<;<<;<3e733333>3/|~KKKKKHDex;;-",
";;;!|!KKKKYKKtM3:33333<;>7e1;<K}{EKKKKYKKKKKKKKKKMepMjKpfYKKYKKKKKKKKKKKU[[K<;<;:4r733333:3/[!KTKKKKKtf;;;",
";;;W|!EKKKHKStj3:33333<;<77;<Y[}!YKKKKKKKKKKKKKKMtpM>>MdecKKKKKKKWKKKKKKKU[[K<;;>4t733333:<^[WKKEKKKDtx;;;",
";;;W|!KKKKKKDtx3:33333<;>3;<J[[YKKKKKKKKKKKEKKKMtdM>-->ZfefYKKKKKKKKKWKKKKK[[U<;>4r733333:3!|WKKKKKKDtx;;;",
";;;W|!KKKKKKDtx3:33333<;>;<Y[}!KKKKKYKKKKKKKKYMtfx>;@@;>McefKKKKKKKKKKKKKKKE_[U<;<p733333:3[|WKKKKKKDtc;;;",
";;;!|!KKKKKKZtM3>33333<;;<J}[TTKKEKKKYKKKKKKKZepm>;OXX@->VfefTFKKKWKKKKKKKKKK[[K<;7733333>3!|WKWKKEKDtf;;;",
";;;E|!KUKKKKHpj3:33333>;<J[}WKKKKKKKKKKKKUKKMtdM>;@XOOX@;:McefKTKKKKKKKKUKKKKK_[T<;<33333:4!|WKKKKKKDrx;;=",
";;;/|!KKKKKKSrj3>3333<;<T'}TYKKKKKKKKKKKKKKZtfc>;+XO:,OX@;>VfefWKKKKKKKKKKKKKKU[[T<;<3333:3!}WKKKKKKKex;;;",
";;;!|!KKKKKKStj3:333<;<Y[[WKKKKKHYKKKKKKKKMtfc:;+XO>33>OX@;>VfegKKKKKKKKKKKKKKKE[[T<;<333:3/}WKKKKKKDtd;;;",
";;;W|!KUHHKKStx3:33<;<K}[WTKKKKKKKKKYKHKKMepm>;@XO>1333>OX+;>mfefEKKKEKKKKKKKKKUK'}K<;<13>3/|!YHEKKKStc;;;",
";;;W|!KKUUKKStx3><<;<K[}TJKKKKKKKKKKKKHYMegm>;@XO>113333,OX+;:FfefKUKKKKKKEKKKKKKK'[Y<;<3:3!|!HYKKKKStc;;;",
";;;W|!KKKKKKKex3:<;<K[}WYKKKKKKKKKKKKKKZefm>;@OX>33333333,OXO;>McefKKKKKKKKKUKKKKKK'}Y<;<:3!}!KKKKKKDtf;;;",
";;;!|!KUKKEKKtx3:;<J[[!KKKKKKKKYKYKKKKMepm>:@XX:3333333333,OOO;>MfecKKKKKKKKKKKKKKKK'}K<;:3/}EKKKKKKKtx;;-",
";;;!|!KKKKUKStx<;<K[}!KKKKKKKKKKKKKKYMedm:;@OX>333333333333>XX+;:ZfrfKKKKKEKKKKKKKKKY_[Y<;<!}!KKKKEKStM;;;",
";;;!|!KKUKKKStx::Y[|!KKKKKKKKKKYKYKKMedM>;OXX773333333333333;Oo@;>McefKKKKKKKKUKKKKKKK_[K::!}!KKKKKKDtd;;;",
";;;W|!KKHUHKDtx><!}!KKKKKYKKKKKKKKKZejm>;@XX3e73333333333333:=oX@;:McecKKKKKKKKUKKKKKKK[K<:/}!KKKKKKDtd;;;",
";;;W|!KKUHKKKtx:>T!KKKKKKKTKKKKKKYMepm>-@XX:8e33313333333333:;,+o@;>MfedKKKKKKKKKKKKKKKKK>>!}!KKKKKKDtd;;;",
";;;!|!KKKKKKKtf><KKKYKKYKKKKKYHKYMejm>;@XX&18e43333333333333:;17OX@;>AfefKKKKKKKKTKKKKKKK>:/|!KKYKKKKtc;;;",
";;;!|!KKKKKKDtx>,KKKYj5jKKKYKKKKMejM>-OXO-;18p13333333333333:;3e4OXO;>MfefKKKKKKKKKe6KKKK,>~|EKKKKKKStc;;;",
";;;!|!KKKKKKDtx:<KKKe  .dKKKHEKMegm>;@XO:>;18e333333333<3333:;3ee<OX@;>mcefKKKKKKK;  #KKK,:~|!KKKKKKDtc;;;",
";;;!|!KKYKKKDtx::KKK&   ;KKKKHZtgm>;OXO:1>;18e43333333333333>;3e0<<OX@;>ZfefKKKKKK.   fKK>>~|!KKKKKKDtd;;-",
";;;W}!KKKKKKDrx,<KKK:   3KKKKMtdM>;+oo>31>;10e43133333333333:;3ee33<OX@;>mfecZYKKKO   MYK<:/|~KKKKKKStd;;;",
"=;;~}!KEKKKKDrx:,KYKZ*O;HKKKStpM>;OOo:331>;10e33333333333333::3ew331>OX@;>McefKKKKp@@4KKK>>!|EKKKKKEDtc;;;",
";;;!}!YYffKKSrx>:KKKKKKKHKKZedM>;OXo:3333>;18p33333333333333:;<ew3333<OXO;>ZfefFKKKKKKKKK>>/|EKKpdKKDtc;;*",
";;;!}EK;  ;KHrM:<KKKKKKKKKSddZ>-@Xo:33333>;18e43333333333333:;3ew31331<OX@;>McecKKKKKKKKE>:~|WK*  >KDtc;;;",
";;;~|!Z    SStS:<KKKKKKKKKEKN>;@XO:<33111>;<8e41313333333333:;3ew333333<OX@=<mKZHUUEKKKKK<>E|!d    KKtd;;;",
";;;W|!D.  .HDMS;;:>>>:>:>:>:;;;;;;:::::::;:::>:;;;;;;::;;::::;:>:::;::::;;;;;::>>>:::>>>:;;K!EM   XYDtc;;;",
";;;W}!K4XX4YKS<;;<::><><>>>,>34443444343444344447333337334444343413441344344<><>><>><>>>>;;<HHE3Xo0KDtc;;;",
";;;W}!KKHEHKH<;3JT[^^[//_////((/////[![/////[///_[_[[_[[)///[~/[['//[!`[////////[~//[///~K3;,KKKKKKKDtf;;;",
";;;!}!KKHKKS,;3KT[}}}}}}}}}}}_||}}}[}}}}}}}}[}|}||[[)[[[}}|}}}||}}|}[[}}}}}}}}|}_}}}}}}}|/K3;,HEKKKKSed;;;",
";;;!}!KKKKH,;3KKFKJYYYKYYKYYEEEHKYTJYKJYTTTTKYTYTTTKKKKUKYTKYKEKTKTYFFYTYTKTTKTKKSYTYEKYEEKH3;,HKKKKDrl;;;",
";;;!|!KKKZ,;3KKK:O&FKKKKKKKKKKHKKKKKJKKKKKJJKKKKDTTKKWKTYKKKKKKEKKKKKKJKKKKKJKKKKKKKKKM%O,HEH3;2SKKKKel;;;",
";;;!|WKKK2;3KYK4   ;KKKKKKKKKKEKKYKKKKKKTKJKKTKKKKKTDDKDKKKKKKKKKKKKKKKKKKKKKKKKKKKTKK%   qHEH3;<HYKKtd;;*",
";;;W/HUS2;3HLUH>   %KKKKKKKKKKKKKEHKKKKKKKKKKKKKKKKKKKKKTKKKKKKKKKKKKKKYKKKKKKKEKKKKKK@   3KKEK3;,HEHMl;;;",
"=;;WLUH,;3SHLHUd.  0KKKKKKKKKKKKKKKKKKKKKKKKKUKKKKKTKKKKKKKKKKKKKKKKKKKKKKKKKKKKKKKKKK4  XMKKKKK3;,SUHM;;;",
";;;KUS2;3HLELULLc4fKKKKKKKKKKKKKKKKKKKKKEKKKKKKETFTKKKKKKKKKKKKKKKKKKKKKKYKKKKKKKKKKKKTt7ZKKKKKKH3;2HKE;;;",
";;;KS,;3HLHHHHUHKKKJKKKKKKKKKKKYKKKUKKKHHKUKKKKKKKKKKKKKKKKKKKKKKKTKKKKKKKKKKKKKTKKKKKKKKKKKKKKKEH3;,HH;;;",
";;;D2;3HKSNNNNNNFZMFMZSMFMMMZMZMMZMZMZMZNNNNMSMZFMFZZZMZFVFVMMZMVVVMMZFMZMMZZZMMFVVFZZZMMSNNNNSMHHH3;,H;;;",
";;;<;3HHdtttrttteeeeeeeetttetttttttttttttttttttteeeeeeeetetttttteetetttttttttttteeeeeeeetetttttttMHH3;,;;;",
";;;;3SMZxxMxxxMxccmcMMxjMMccxMxxMMjxxMxxxxxxxMMdccmcMMcdccfxxMxxcccVxxxxxxxxxMMxmcfmmccjcccxxxxxlMSZH3:;;;",
";;;;;;;;;;;;;;;;;;;;;;;;;;;;;;;;;;;;;;;;;;;;;;;;;;;;;;;;;;;;;;;;;;;;;;;;;;;;;;;;;;;;;;;;;;;;;;;;;;;;;;;;;-",
";;;;;;;;;;;;;;;;;;;;;;;;;;;;;;;;;;;;;;;;;;;;;;;;;;;;;;;;;;;;;;;;;;;;;;;;;;;;;;;;;;;;;;;;;;;;;;;;;;;;;;;;;;",
";=;=;**;;;*;;;;*=;=;=;;;=;=;=;;=;;=;;=*;;;;-;*;;==;;;=;=;;;;%;;==;;=;=;*;;;*;*;;==;=;;;=;==;;=;;;*;;*;*;;-"
};
