/* XPM */
static char *result[] = {
/* columns rows colors chars-per-pixel */
"50 50 80 1 ",
"  c #30160D",
". c #35170E",
"X c #241710",
"o c #301E15",
"O c #3D1B10",
"+ c #3F1D11",
"@ c #34230D",
"# c #3B280F",
"$ c #342014",
"% c #3D2F2A",
"& c #461F12",
"* c #452F0B",
"= c #5B3E0E",
"- c #412117",
"; c #442E11",
": c #452A1B",
"> c #502415",
", c #562C1E",
"< c #4B3213",
"1 c #4E3514",
"2 c #573E14",
"3 c #52382A",
"4 c #633223",
"5 c #63392C",
"6 c #624219",
"7 c #72521B",
"8 c #78581F",
"9 c #594638",
"0 c #724233",
"q c #765E4B",
"w c #566B6F",
"e c #855C17",
"r c #815D20",
"t c #8D6F39",
"y c #A97A2A",
"u c #94755E",
"i c #6BB772",
"p c #72C37A",
"a c #BA924B",
"s c #898179",
"d c #CF9C46",
"f c #538794",
"g c #64878C",
"h c #4B91A2",
"j c #4C95A7",
"k c #4C98AA",
"l c #4D99AB",
"z c #5197A8",
"x c #5199AA",
"c c #519AAC",
"v c #5999A9",
"b c #5C9FAF",
"n c #4E9DB0",
"m c #509EB1",
"M c #5AADAB",
"N c #4EA0B3",
"B c #4FA2B5",
"V c #4FA2B6",
"C c #4FA3B7",
"Z c #4FA4B7",
"A c #4FA4B8",
"S c #50A0B3",
"D c #50A3B6",
"F c #50A3B7",
"G c #53A3B6",
"H c #55A2B4",
"J c #50A5B7",
"K c #54A7B6",
"L c #8ECF95",
"P c #81C4A0",
"I c #8CD0AC",
"U c #99D4A0",
"Y c #89D4B0",
"T c #8AD7B2",
"R c #92E7BF",
"E c #DAC080",
"W c #92E8C0",
"Q c #A8DCF0",
"! c gray87",
"~ c #D8E9F0",
/* pixels */
"AAAAAAAAAAAAAAAAAAAAAAAAAAAAAAAAAAAAAAAAAAAAAAAAAA",
"AAJ%%%pp99V9%pLPjFvw%%p%%V%%p%NS%%p%%V9%pp%%%AAAAA",
"AAJ%%%pp9999%pLL%qq9%%p%%9%%p%%9%%p%%99%pp%%%fKAAA",
"WHuuup!!%99%pp%%999%%%p%%9%%pUU%pppUU%%pUU%pp%%%%A",
"W99ppppppppppppppppppppppppppppppppppppppppppp%%%A",
"W%%ppppppppppppppppppppp4,ppppppppppppppppppppp%%A",
"A%%pppppppppppppppppppp>4,,ppppppppppppppppppp!ppA",
"A%%ppppppppppppppppppp04>,&54ppppppppppppppppp!ppA",
"Apppppppppppppppppppp44>4,,&,ppppppppppppppppp%99A",
"Appppppppppppppppppp00004,55,5>ppppppppppppppp999A",
"A%%ppppppppppppppp440>04>,&5&,5&pppppppppppppp99VA",
"A99ppppppppppppppp44>44>4,,&,&,&&ppppppppppppp%99A",
"Ax9ppppppppppppp>4>40>04>,&5&,5&,,ipppppppppppp%%A",
"A%%pppppppppppp>>>44>44>4,,&,&,&&,,ppppppppppppppW",
"A%%ppppppppppp00>04>00004,55,5&&5&55&ppppppppp%LLW",
"Wpppppppppppp404>4>40>04>,&5&,5&,,&55,pppppppp%LLA",
"W%%ppppppppp444>>>44>44>4,,&,&,&&,,&,,pppppppp9%%A",
"Wk%ppppppp40>404>4>40>04>*&5&,5&,,&55&5&pppppp9qqA",
"WA9ppppppp44444>>>44>44>2*2&,&,&&,,&,,,&&ppppp9qqA",
"Ak%ppppp004>0>00>04>002*2*2*,5&&5&55&,5&55pppp%9SA",
"A%%pppp>00>04>04>0>>042*2*2*.55&,&,55&5&,5,ppp%%%A",
"Apppppp>4>44444>>>44>22*232**.-&&,,&,,,&&&,ipp%%%A",
"A%%pp40>00>04>04>0>O@2Eaoooa=2*.-&,55&5&,5&55ppppA",
"A%%pp4>>4>44444>>>@*@2t<r6yo37=2.,,&,,,&&&,&,p%%%A",
"Am9pp>0>004>0>00>*@2@2X6y6y6a777=.55&,5&55&5&p%%%A",
"Wn%pp>0>00>04>04>*@2@$o6y6y6a@77= -55&5&,5&55p99cA",
"W%%pp4>>4>44444>*2@2;:r6y6y6a*==7=@.,,,&&&,&,p%%lA",
"Wpppp>0>004>0>*222@7;:y6y6y6a27777;2 ,5&55&5&p%%%A",
"A%%pp4>>4>44*2*227;7;788888882777=;7;2,&&&,&,ppppA",
"AChpp>0>004>*2*2;7;=;7**2*2**7=777;7;72&55&5&pU%%A",
"AAApp40>00>**2*277;=;7==7=7==7=777;;;72.,5&55pU%%A",
"ARIpp4>>4>2**2*77=;7;77=7=7==777=7;7;=7*..,&,p%9BA",
"Aqqpp>0>p@2*@;===7;7;77=7====7777=;7;7==2#&5&pp%%A",
"A%%pp4>pp@2*===77EEEE37=7=7==7773EE3;77=2#p+,pp%%A",
"ALLpp>ppp@**=7=3a6666oE=7=7;=73aa11aa37=2#pp+ppppW",
"ALLpppppp@2*=7=aoyyyy6a37=7==7aa~1Q~oa7=*#ppppU%%W",
"Apppppppp@2*=73ayyyyy6oE7=7==3a~~1Q~~a7=2#ppppU%%W",
"A%%pppppp@2*=7a6yyyyy66a3=7==a1~~1Q~~17=2#pppp%9TW",
"WY9pppppp@2=;:a6yyyyy66E8*===a11111111:=2#pppp%99W",
"WW9pppppp@2==:a6yyyyed6E8@;==aQQQ1QQQ~:=2#ppppp%%W",
"Az9pppppp@2==:a6yyyyy66E8*7==aQQQ1QQQ~:=2#ppppUppA",
"A99pppppp@**=:a6yyyyyg6E8*7;=aQQQ1QQQ~:=2#ppppUppA",
"Apppppppp@2*=:a6yyyyy66E8*7==EEEEEEEEE:=*#pppp%%%A",
"Apppppppp@2*=:a6yyyyy66E8*7==722*2@2@*2=2#ppppp%%A",
"A%%pppppp@2*=:a6yyyyy66E8*7===77==;7;;7=2#ppppp%%A",
"A%%pppppp@2*;:8::::::::a8*===7777=;7;7==2#pppp%99A",
"A%%pppppppppppppppppppppppppppppppppppppppppppuuuA",
"AAM%%%pp9999%pLL%qDV%%p%%9%%p%%9%%p%%99%pp%%%9usbA",
"AAA%%%pp99SS%pLL%qAA%%p%kAk%p%hZChp%%SS%pp%%%9uGAA",
"AAAAAAAAAAAAAAAAAAAAAAAAAAAAAAAAAAAAAAAAAAAAAAAAAA"
};
