/* XPM */
static char *result[] = {
/* columns rows colors chars-per-pixel */
"50 50 45 1 ",
"  c #3D2F2A",
". c #5B3715",
"X c #553730",
"o c #594638",
"O c #765E4B",
"+ c #566B6F",
"@ c #DF0024",
"# c #94755E",
"$ c #72C37A",
"% c #898179",
"& c #538794",
"* c #4B91A2",
"= c #4C95A7",
"- c #4C98AA",
"; c #4D99AB",
": c #5197A8",
"> c #5199AA",
", c #519AAC",
"< c #5999A9",
"1 c #5C9FAF",
"2 c #4E9DB0",
"3 c #509EB1",
"4 c #5AADAB",
"5 c #4EA0B3",
"6 c #4FA2B5",
"7 c #4FA2B6",
"8 c #4FA3B7",
"9 c #4FA4B7",
"0 c #4FA4B8",
"q c #50A0B3",
"w c #50A3B6",
"e c #50A3B7",
"r c #53A3B6",
"t c #55A2B4",
"y c #50A5B7",
"u c #54A7B6",
"i c #8ECF95",
"p c #81C4A0",
"a c #8CD0AC",
"s c #99D4A0",
"d c #89D4B0",
"f c #8AD7B2",
"g c #92E7BF",
"h c #92E8C0",
"j c gray87",
/* pixels */
"00000000000000000000000000000000000000000000000000",
"00y   $$oo7o $ip=e<+  $  7  $ 5q  $  7o $$   00000",
"00y   $$oooo $ii OOo  $  o  $  o  $  oo $$   &u000",
"ht###$jj oo $$  ooo   $  o  $ss $$$ss  $ss $$    0",
"hoo i$$$j  $$$jj   $$$$ii $$$$$$$$$$$$$$jj $$i   0",
"h  $$$$$j  $$$jj   $$$$ii $$$$$$$$$$$$$$jj $$i$  0",
"0  $$$$$$$$$$$$$$$$$$$$$$$$$$$$$$$$$$$$$$$$$$$j$$0",
"0    $$$$$$$$$$$$$$$$$$$$$$$$$$$$$$$$$$$$$$$$$j$$0",
"0$$sj$$$$$$$$$$$$$$$$$$$$$$$$$$$$$$$$$$$$$$$$$ oo0",
"0$$sj$$$$$$$$$$$$$$$$$$$$$$$$$$$$$$$$$$$$$$$$$ooo0",
"0  $$$$$$$$$$$$$$$$$$$$$$$$$$$$$$$$$$$$$$$$$$$oo70",
"0oo $$$$$$$$$$$$$$$$$$$$$$$$$$$$$$$$$$$$$$$$$$ oo0",
"0>o $$$$$$$$$$$$$$$$$$$$$$$$$$$$$$$$$$$$$$$$$$$  0",
"0  s$$$$$$$$$$$$$$$$$$$$$$$$$$$$$$$$$$$$$$$$$$$$$h",
"0  s$$$$$$$$$$$$$$$$$$$$$$$$$$$$$$$$$$$$$$$$$$ iih",
"h$$$$$$$$$$$$$$$$$$$$XXX$$$$$$$$$$$$$$$$$$$$$$ ii0",
"h  $$$$$$$$$$$$$$$$$$XXX$$$$$$$$$$$$$$$$$$$$$$o  0",
"h- $$$$$$$$$$$$$$$$$$XXX$$$$$$$$$$$$$$$$$$$$$$oOO0",
"h0o $$$$$$$$$$$$$$$$$......$$$$$$$$$$$$$$$$$$$oOO0",
"0- s$$$$$$$$$$$$$$$$$......$$$$$$$$$$$$$$$$$$$ oq0",
"0  s$$$$$$$$$$$$$$$$$......$$$$$$$$$$$$$$$$$$$   0",
"0$$$$$$$$$$$$$$$$$$$$...$$$...$$$$$$$$$$$$$$$$   0",
"0   $$$$$$$$$$$$$$$$$...$$$...$$$$$$$$$$$$$$$$$$$0",
"0   $$$$$$$$$$$$$$$$$...$$$...$$$$$$$$$$$$$$$$   0",
"03oo $$$$$$$$$$$$$$$$...@@@@@@$$$$$$$$$$$$$$$$   0",
"h2  i$$$$$$$$$$$$$$$$...@@@@@@$$$$$$$$$$$$$$$$oo,0",
"h   i$$$$$$$$$$$$$$$$...@@@@@@$$$$$$$$$$$$$$$$  ;0",
"h$$$$$$$$$$$$$$$$$@@@@@@$$$@@@@@@$$$$$$$$$$$$$   0",
"0   $$$$$$$$$$$$$$@@@@@@$$$@@@@@@$$$$$$$$$$$$$$$$0",
"08* $$$$$$$$$$$$$$@@@@@@$$$@@@@@@$$$$$$$$$$$$$s  0",
"000 $$$$$$$$$$$$$$@@@@@@@@@@@@@@@$$$$$$$$$$$$$s  0",
"0gao $$$$$$$$$$$$$@@@@@@@@@@@@@@@$$$$$$$$$$$$$ o60",
"0OOo $$$$$$$$$$$$$@@@@@@@@@@@@@@@$$$$$$$$$$$$$$  0",
"0  o $$$$$$$$$$$$$@@@@@@@@@$$$$$$$$$$$$$$$$$$$$  0",
"0ii j$$$$$$$$$$$$$@@@@@@@@@$$$$$$$$$$$$$$$$$$$$$$h",
"0ii j$$$$$$$$$$$$$@@@@@@@@@$$$$$$$$$$$$$$$$$$$s  h",
"0$$$$$$$$$$$$$$$$$$$$$$$$$$$$$$$$$$$$$$$$$$$$$s  h",
"0  $$$$$$$$$$$$$$$$$$$$$$$$$$$$$$$$$$$$$$$$$$$ ofh",
"hdo $$$$$$$$$$$$$$$$$$$$$$$$$$$$$$$$$$$$$$$$$$ ooh",
"hhoo $$$$$$$$$$$$$$$$$$$$$$$$$$$$$$$$$$$$$$$$$$  h",
"0:oo $$$$$$$$$$$$$$$$$$$$$$$$$$$$$$$$$$$$$$$$$s$$0",
"0oo j$$$$$$$$$$$$$$$$$$$$$$$$$$$$$$$$$$$$$$$$$s$$0",
"0$$j$$$$$$$$$$$$$$$$$$$$$$$$$$$$$$$$$$$$$$$$$$   0",
"0$$j$$$$$$$$$$$$$$$$$$$$$$$$$$$$$$$$$$$$$$$$$$$  0",
"0  $$$$$$$$$$$$$$$$$$$$$$$$$$$$$$$$$$$$$$$$$$$$  0",
"0  $$$$$j  $$$jj   $$$$ii $$$$$$$$$$$$$$jj $ii oo0",
"0    $jj oo $$  ooo   $  o  $ss $$$ss  $ss ######0",
"004   $$oooo $ii Ow7  $  o  $  o  $  oo $$   o#%10",
"000   $$ooqq $ii O00  $ -0- $ *98*$  qq $$   o#r00",
"00000000000000000000000000000000000000000000000000"
};
