/* XPM */
static char *result[] = {
/* columns rows colors chars-per-pixel */
"50 50 49 1 ",
"  c gray9",
". c #3D2F2A",
"X c #594638",
"o c #765E4B",
"O c #566B6F",
"+ c #B4202A",
"@ c #94755E",
"# c #72C37A",
"$ c #AE8C12",
"% c #898179",
"& c #FFD541",
"* c #538794",
"= c #4B91A2",
"- c #4C95A7",
"; c #4C98AA",
": c #4D99AB",
"> c #5197A8",
", c #5199AA",
"< c #519AAC",
"1 c #5999A9",
"2 c #5C9FAF",
"3 c #4E9DB0",
"4 c #509EB1",
"5 c #5AADAB",
"6 c #4EA0B3",
"7 c #4FA2B5",
"8 c #4FA2B6",
"9 c #4FA3B7",
"0 c #4FA4B7",
"q c #4FA4B8",
"w c #50A0B3",
"e c #50A3B6",
"r c #50A3B7",
"t c #53A3B6",
"y c #55A2B4",
"u c #50A5B7",
"i c #54A7B6",
"p c #A9A68D",
"a c #8ECF95",
"s c #81C4A0",
"d c #8CD0AC",
"f c #99D4A0",
"g c #89D4B0",
"h c #8AD7B2",
"j c #92E7BF",
"k c #D6D3BC",
"l c #92E8C0",
"z c gray87",
"x c #F5F3E2",
/* pixels */
"qqqqqqqqqqqqqqqqqqqqqqqqqqqqqqqqqqqqqqqqqqqqqqqqqq",
"qqu...##XX8X.#as-r1O..#..8..#.6w..#..8X.##...qqqqq",
"qqu...##XXXX.#aa.ooX..#..X..#..X..#..XX.##...*iqqq",
"ly@@@#zz.XX.##..XXX...#..X..#ff.###ff..#ff.##....q",
"lXX.a###z..###zz...####aa.##############zz.##a...q",
"l..#####z..###zz...####aa.##############zz.##a#..q",
"q..###########################################z##q",
"q....#########################################z##q",
"q##fz#######################  ################.XXq",
"q##fz#######################  ################XXXq",
"q..#########################++  ##############XX8q",
"qXX.########################+ ################.XXq",
"q,X.######################  xx  ###############..q",
"q..f##################### xxxxxx ################l",
"q..f##################   xxxxxxxx  ###########.aal",
"l#####################xxxxxxxxxxxxx ##########.aaq",
"l..###################xxxxxxxxxxxxx ##########X..q",
"l;.###################xxxxxx  xxxxx ##########Xooq",
"lqX.##################xxxxxx  xxxxx ##########Xooq",
"q;.f##################xxxxxx  xxxxx ##########.Xwq",
"q..f#########     ####xxxxxxxxxxx&&& #########...q",
"q########### ppppp  ##xxxxxxxxxxx&&&& ########...q",
"q...###### xxxxxxxxxxxxxxxxxxxxxx++ #############q",
"q...###### xxxxxxxxxxxxxxxxxxxxxx++ ##########...q",
"q4XX.##### xxxxxxxxxxxxxxxxxxxxxxxx ##########...q",
"l3..a##### xxxxxxxxxkkkkkkxxxxxxxxx ##########XX<q",
"l...a##### xxxxxxxxxkkkkkkxxxxxxxxx ##########..:q",
"l######### xxxxxxxxxkkkkkkxxxxxxxxx ##########...q",
"q...###### pkkkkkkkkkkkkkkkkxxxxxpp #############q",
"q9=.####### kkkkkkkkkkkkkkkkxxxxp  ###########f..q",
"qqq.####### kkkkkkkkkkkkkkppxxpp #############f..q",
"qjdX.###### kkkkkkkkkkkkkkppxxpp #############.X7q",
"qooX.####### kkkkkkkkkkkkpxxxp  ###############..q",
"q..X.########    ppppppppxxxp #################..q",
"qaa.z########    ppppppppxxxp ###################l",
"qaa.z############pxxxxxxxxxx #################f..l",
"q################ pppppppppp##################f..l",
"q..##############           ##################.Xhl",
"lgX.#############&  ######   #################.XXl",
"llXX.############&&& #####  $ #################..l",
"q>XX.############   ######## #################f##q",
"qXX.z#########################################f##q",
"q##z##########################################...q",
"q##z###########################################..q",
"q..############################################..q",
"q..#####z..###zz...####aa.##############zz.#aa.XXq",
"q....#zz.XX.##..XXX...#..X..#ff.###ff..#ff.@@@@@@q",
"qq5...##XXXX.#aa.oe8..#..X..#..X..#..XX.##...X@%2q",
"qqq...##XXww.#aa.oqq..#.;q;.#.=09=#..ww.##...X@tqq",
"qqqqqqqqqqqqqqqqqqqqqqqqqqqqqqqqqqqqqqqqqqqqqqqqqq"
};
