/* XPM */
static char *_2db745605844298c10efad19cccdab7iaFMGy6Lt0BvaQqb[] = {
/* columns rows colors chars-per-pixel */
"102 50 164 2 ",
"   c None",
".  c #000000",
"X  c #080702",
"o  c #0D0B04",
"O  c #120F06",
"+  c #161207",
"@  c #1C170A",
"#  c #1F190A",
"$  c #231D0D",
"%  c #27200D",
"&  c #2C250E",
"*  c #2E2712",
"=  c #362D15",
"-  c #393016",
";  c #3E3519",
":  c #433716",
">  c #463A17",
",  c #463A18",
"<  c #4A3D1B",
"1  c #4F411A",
"2  c #50411A",
"3  c #5B4B1E",
"4  c #67582D",
"5  c #725E26",
"6  c #6B5C31",
"7  c #7F6E3B",
"8  c #8B722E",
"9  c #917935",
"0  c #897740",
"q  c #8C7A43",
"w  c #8F7E4C",
"e  c #927E45",
"r  c #9E8234",
"t  c #A38636",
"y  c #AF8F3A",
"u  c #B2923B",
"i  c #96844F",
"p  c #99854A",
"a  c #A08A4A",
"s  c #AB9041",
"d  c #B79945",
"f  c #BE9E45",
"g  c #B69B4C",
"h  c #A99454",
"j  c #B7A15D",
"k  c #BEA762",
"l  c #B8A670",
"z  c #C4A242",
"x  c #C9A647",
"c  c #C7A64B",
"v  c #C9A749",
"b  c #CDAB4C",
"n  c #D3B255",
"m  c #D6B659",
"M  c #DABA5D",
"N  c #CCB56A",
"B  c #D0B667",
"V  c #D7B961",
"C  c #DCBC64",
"Z  c #DFC065",
"A  c #DEC26E",
"S  c #DFC472",
"D  c #E0C166",
"F  c #E5C66C",
"G  c #E6C86E",
"H  c #E2C674",
"J  c #EACD73",
"K  c #E0C77E",
"L  c #E6CA7B",
"P  c #E9CE7E",
"I  c #EDD077",
"U  c #EDD27D",
"Y  c #F2D57D",
"T  c #EFD484",
"R  c #EED58B",
"E  c #F1D685",
"W  c #F6DA83",
"Q  c #F8DD86",
"!  c #F0D78C",
"~  c #F4DB8D",
"^  c #FADF88",
"/  c #EDD692",
"(  c #EED991",
")  c #E1D19D",
"_  c #EED799",
"`  c #EED99B",
"'  c #F2DB95",
"]  c #F1DB9B",
"[  c #FCE18B",
"{  c #FCE393",
"}  c #F7E09C",
"|  c #FCE59B",
" . c #F1DEA4",
".. c #F2DFAA",
"X. c #EFDFB3",
"o. c #F5E1A3",
"O. c #FBE5A1",
"+. c #FEE9A3",
"@. c #F2E0AB",
"#. c #F9E6AA",
"$. c #FEEBAB",
"%. c #EFE2B7",
"&. c #EFE1B8",
"*. c #F2E2B4",
"=. c #FFEDB3",
"-. c #F2E4BA",
";. c #FEEFBA",
":. c #FFF0BD",
">. c #F7EAC3",
",. c #FCEFC3",
"<. c #F0E7C9",
"1. c #F5EACA",
"2. c #FFF2C4",
"3. c #FEF3CB",
"4. c #FBF4D7",
"5. c #FFF6D4",
"6. c #FFF6D5",
"7. c #FDF5D6",
"8. c #FFF6D7",
"9. c #FCF4D4",
"0. c #FDF4D3",
"q. c #FBF5DB",
"w. c #FDF5D8",
"e. c #FDF5D9",
"r. c #FFF6D8",
"t. c #FFF7D9",
"y. c #FDF5DA",
"u. c #FFF7DA",
"i. c #FFF7DB",
"p. c #FBF5DC",
"a. c #FCF5DC",
"s. c #FFF7DC",
"d. c #FFF7DD",
"f. c #FCF6DF",
"g. c #FDF7DF",
"h. c #FCF6DD",
"j. c #FEF6DA",
"k. c cornsilk",
"l. c #FBF5E0",
"z. c #FBF5E1",
"x. c #FBF7E3",
"c. c #FBF7E2",
"v. c #FDF7E1",
"b. c #FDF7E2",
"n. c #FBF6E4",
"m. c #FFF8E1",
"M. c #FFF8E0",
"N. c #FFF9E4",
"B. c #FFF9E5",
"V. c #FFFAE6",
"C. c #FFFAE7",
"Z. c #FDF8E6",
"A. c #FFF8E1",
"S. c #FDF9E9",
"D. c #FFFAE8",
"F. c #FFFAE9",
"G. c #FDF9EA",
"H. c #FDF9EB",
"J. c #FFFAEA",
"K. c #FFFBEC",
"L. c #FFFBED",
"P. c #FFFBEE",
"I. c #FFFBEF",
"U. c #FFFBEB",
/* pixels */
"                                                                                                                                                                                                            ",
"                                                          k.c.n.P.I.I.I.I.I.I.I.U.c.k.                                                                                                                      ",
"                                                    a.I.I.I.I.I.I.I.I.I.P.P.I.I.P.P.P.P.P.n.p.                                                                                                              ",
"                                                Z.P.P.P.I.I.I.P.I.I.I.P.U.U.Z.G.U.P.I.P.I.I.P.G.a.                                                                                                          ",
"                                            n.I.P.I.P.I.I.P.Z.k.8.3.2.2.2.2.2.2.2.2.2.3.5.t.N.P.I.G.i.                                                                                                      ",
"                                        p.P.I.I.I.I.P.M.8.2.2.2.2.2.2.2.2.2.2.2.2.2.2.2.2.2.2.3.5.M.I.c.                                                                                                    ",
"                                      M.P.P.I.I.P.t.3.2.2.2.2.2.2.2.2.2.2.2.2.2.2.2.2.2.2.2.2.2.2.2.2.i.Z.p.                                                                                                ",
"                                    c.I.I.P.P.k.2.2.2.2.2.2.2.2.2.2.2.2.2.2.2.2.2.2.2.2.2.2.2.2.2.2.2.2.2.8.p.                                                                                              ",
"                                  n.P.I.I.C.3.2.=.$.2.2.:.$.$.$.$.$.=.:.2.2.2.2.2.2.2.2.2.2.2.2.2.2.2.2.2.2.3.$.                                                                                            ",
"                                c.I.I.I.k.2.:.| { =.+.[ [ [ [ | +.$.=.=.:.2.2.2.2.2.2.2.2.2.2.2.2.2.2.2.2.2.2.[ |                                                                                           ",
"                              a.I.I.P.8.2.=.[ [ { [ [ | $.:.2.2.2.2.2.2.2.2.2.2.2.2.2.2.2.2.2.2.2.2.2.2.2.2.2.{ {                                                                                           ",
"                              I.I.P.3.2.$.[ [ [ | $.2.2.2.2.2.2.2.2.2.2.2.2.2.2.2.2.2.2.2.2.2.2.2.2.2.2.2.2.2.{ [ {                                                                                         ",
"                            G.I.U.3.2.$.[ [ $.:.2.2.2.2.2.2.2.:.2.2.2.2.2.2.2.2.2.2.2.2.2.2.2.2.2.2.2.2.2.2.2.{ [ [ O.                                                                                      ",
"                          b.I.I.5.2.:.[ $.2.2.2.2.2.:.$.| [ [ [ [ [ [ { $.:.2.2.2.2.2.2.2.2.2.2.2.2.2.2.2.2.2.{ [ [ [                                                                                       ",
"                        p.I.I.5.2.2.$.2.2.2.2.2.$.{ [ [ [ [ [ [ [ [ [ [ [ [ | :.2.2.2.2.2.2.2.2.2.2.2.2.2.2.2.[ [ [ [ |                                                                                     ",
"                        G.I.i.2.2.2.2.2.2.2.=.{ [ [ Y I F F J W [ [ [ [ [ [ [ [ =.2.2.2.2.2.2.2.2.2.2.2.2.2.;.[ [ ^ ^ {                                                                                     ",
"                      c.I.Z.2.2.2.2.2.2.2.| [ [ D b z z z z z z n Y [ [ [ [ [ [ [ =.2.2.2.2.2.2.2.2.2.2.2.2.=.[ [ [ [ [                                                                                     ",
"                      I.G.3.2.2.2.2.2.2.| [ 7 # @ % : 5 y z z z z z J [ I Y [ [ [ [ :.2.2.2.2.2.2.2.2.2.2.2.$.[ [ [ [ [ |                                                                                   ",
"                    n.I.5.2.2.2.2.2.2.| L = . . . . . . . > u z z z z Y [ b Q [ [ [ +.2.2.2.2.2.2.2.2.2.2.2.+.[ [ [ [ [ {                                                                                   ",
"                    I.M.2.2.2.2.2.2.+.L $ . . . . . . . . . X 8 z z z b [ m M [ [ [ [ 2.2.2.2.2.2.2.2.2.2.2.{ [ [ [ [ [ [   5.                                                                              ",
"                  b.I.2.2.2.2.2.3.;.[ = . . . . . . . . . . . . 8 z z z I Z z Q [ [ [ :.2.2.2.2.2.2.2.2.2.2.[ [ [ [ [ [ [     i.p.0.0.                                                                      ",
"                  I.8.2.2.2.2.2.2.+.9 . . . . . . . . . . . . . + u z z M D z G [ [ [ =.2.2.2.2.2.2.2.2.2.$.[ [ [ [ [ [ [       3.8.a.a.9.                                                                  ",
"                b.G.2.2.2.2.2.2.2.[ @ . . . . . . . . . . . . . . 3 z z b Z z D [ [ [ :.2.2.2.2.2.2.2.2.2.| [ [ [ [ [ [ [         | +.2.8.a.9.                                                              ",
"                I.5.2.2.2.2.2.2.;.N . . . . . . . . . . . . . . . + z z z n z D [ [ [ 2.2.2.2.2.2.2.2.2.:.[ [ [ [ [ [ [ [           | [ +.2.5.a.8.9.                                                        ",
"              M.Z.2.2.2.2.2.2.2.=.h . . . . . . . . . . . . . . . . u z z z z G [ [ | 2.2.2.2.2.2.2.2.2.+.[ [ [ [ [ [ ^ [ 3.          +.[ [ =.2.8.i.8.i.0.0.                                                ",
"              G.3.i 2.2.2.2.2.2.=.j . . . . . . . . . . . . . . . . t z z z z Q [ [ :.2.2.2.2.2.2.2.2.:.[ [ [ [ [ [ [ [ [ 5.i.0.        | [ [ $.2.3.i.3.3.i.i.0.                                            ",
"            i.t.a . ) 2.2.2.2.2.2.E X . . . . . . . . . . . . . . . y z z z C [ [ +.2.2.2.2.2.2.2.2.2.| [ [ [ [ [ [ [ [ { :.3.8.9.        | [ [ $.2.3.8.>.| 2.8.a.5.                                        ",
"            a.B o . l 2.2.2.2.2.2.| 4 . . . . . . . . . . . . . . o z z z x W [ | 2.2.2.2.2.2.2.2.2.$.[ [ [ [ [ [ [ [ [ { { =.2.5.i.        { [ [ $.2.2.i.;.[ +.2.8.i.                                      ",
"            } , . . w 2.2.2.2.2.2.=.E * . . . . . . . . . . . . . , z z z I [ { 2.2.2.2.2.2.2.2.2.:.[ [ [ [ [ [ [ [ [ [ | [ [ :.2.3.4.        [ [ [ :.2.3.8.#.^ | 2.3.i.0.                                  ",
"          ,.g . . . 6 2.2.2.2.2.2.2.+.T ; . . . . . . . . . . . . r z z J [ | 2.2.2.2.2.2.2.2.2.:.{ [ [ [ [ [ [ [ [ [ [ +.[ [ { 2.2.5.0.      { [ [ +.2.2.3.3.{ [ { 2.2.i.8.9.0.                            ",
"          ~ 1 . X . < 2.2.2.2.2.2.2.2.+.[ q O . . . . . . . . . 2 z b Y [ =.2.2.2.2.2.2.2.2.2.:.[ [ [ [ [ [ [ [ [ [ [ {   | [ [ $.2.2.8.        [ [ [ ;.2.2.8.;.[ [ +.2.2.i.;.8.i.0.                        ",
"          m & 9 s + & 2.2.2.2.2.2.2.2.2.=.{ E p - X . . . . . & v G [ $.2.2.2.2.2.2.2.2.2.2.$.[ [ [ [ [ [ [ [ [ [ [ [ #.<.>.[ [ [ :.2.2.8.      { [ [ +.2.2.2.0.| [ [ $.2.2.5.{ ;.5.9.                      ",
"        #.x F [ Q d & #.2.2.2.2.2.2.2.2.2.2.=.+.{ W k p q q h T +.=.2.2.2.2.2.2.2.2.2.2.=.| [ [ [ [ [ [ [ [ [ [ [ [ { 1.&.( { [ [ $.2.2.3.      | [ [ [ 2.2.2.3.  [ [ { 2.2.3.:.[ =.3.i.9.0.                ",
"        [ [ [ =.| Q f ( 2.2.2.2.2.2.2.2.2.2.2.2.2.2.:.;.;.;.2.2.2.2.2.2.2.2.2.2.2.2.=.| [ [ [ [ [ [ [ [ [ [ [ [ [ [ $.] E   O.[ [ { 2.2.2.5.      [ [ [ =.2.2.3.  | [ [ $.2.2.5.{ [ =.2.9.2.9.0.            ",
"        | { :.2.2.| [ U 2.2.2.2.2.2.2.$.| +.$.$.=.2.2.2.2.2.2.2.2.2.2.2.2.2.:.=.| { [ [ [ [ [ [ [ [ [ [ [ [ [ [ [ { ` T `     [ [ [ :.2.2.3.      { [ [ $.2.2.2.3.  [ [ | 2.2.3.=.^ { 2.2.0.{ 2.8.0.        ",
"      p.| :.2.2.2.:.{ | 2.2.2.2.2.2.2.2.+.[ [ [ [ [ [ | +.$.=.=.=.=.$.+.| { [ [ [ [ [ [ [ [ [ [ [ [ [ [ [ [ [ [ [ o.T R       { [ [ $.2.2.3.      { [ [ | 2.2.2.3.  [ [ [ :.2.2.3.{ [ +.2.3.;.{ ;.3.5.      ",
"      0.2.2.2.2.2.2.:.{ 2.2.2.2.2.2.2.2.2.| [ [ [ W W [ [ [ [ [ [ [ [ [ [ [ [ [ [ [ [ [ [ [ [ [ [ [ [ [ [ [ [ [ #.E E         | [ [ +.2.2.2.      | [ [ { 2.2.2.3.  { [ [ =.2.2.3.o.[ [ 2.2.3.{ [ :.3.0.    ",
"      3.2.2.2.2.2.2.2.:.2.2.2.2.2.2.2.2.2.2.| [ [ [ m n F W [ [ [ [ [ [ [ [ [ [ ^ [ [ [ [ [ [ [ [ [ [ [ [ [ [ +.] T (         | [ [ | 2.2.2.      | [ [ { 2.2.2.2.  | [ [ $.2.2.2.  [ [ $.,.3.=.[ +.2.3.    ",
"    9.2.2.2.2.2.2.2.2.2.2.2.2.2.2.2.2.2.2.2.:.| [ [ Q n z z n J [ [ [ [ [ [ [ [ [ [ [ [ [ [ [ [ [ [ [ [ [ [ #.-.! T `         } [ [ | 2.2.2.      | [ [ { 2.2.2.>.  O.[ [ +.2.2.2.  { [ +.2.2.  { [ :.2.3.  ",
"    3.2.2.2.2.2.2.2.2.2.2.2.2.2.2.2.2.2.2.2.2.2.{ [ [ W x z n x x C Q [ [ J G [ [ [ [ [ [ [ [ [ [ [ [ [ [ #.-.*.T T           O.[ [ | 2.2.2.      } [ [ { 2.2.2.2.  | [ [ +.2.2.,.  | [ | 2.2.3.| [ #.2.3.  ",
"    2.2.2.2.2.2.2.2.2.2.2.2.2.2.2.2.=.2.2.:.2.2.{ [ [ m z A -.*.A x z M W M z G [ [ [ [ [ [ [ [ [ [ [ |   &.-...T R           | [ [ | 2.2.2.      | [ [ { 2.2.2.2.  O.[ [ +.2.2.2.  | [ { 2.2.2.  [ | 2.3.  ",
"    =.2.2.2.2.2.2.2.2.2.2.2.2.2.2.=.[ :.2.| ;.=.[ [ M x L   -.-.-.] G b z z z z m Y [ [ [ [ [ [ [ { ' T   -.-. .E R           | [ [ | 2.2.2.      { [ [ { 2.2.2.,.  } [ [ +.2.2.;.  } [ [ 2.2.2.  [ { 2.2.  ",
"  :.{ | [ $.:.$.:.2.2.2.2.:.| $.:.{ [ $.$.[ | | [ F x L     -.-.-.@.T T R S m b z z b C G Y { #.-.' T T ] &.-. .T R           { [ [ +.2.2.2.      { [ [ | 2.2.2.2.  | [ [ $.2.2.2.  | [ { 2.2.,.  [ [ 2.2.  ",
"  2.+.$.$.{ [ +.$.2.2.2.:.{ [ [ [ [ [ { [ [ [ [ W z S         -.-.@.T T ( &.-.-. .T T T (   %.-.-. .T T _ &.-. .T R           { [ [ +.2.2.2.      ^ [ [ +.2.2.2.    { [ [ $.2.2.>.  | [ { 2.2.2.  [ [ 2.2.  ",
"  2.$.t.=.| 3.2.[ 2.:.$.{ E T U [ Y F [ [ [ G [ m V           -.-.*.T T T -.-.-.-.T T T (   -.-.-. .E T ( &.-...T E           [ [ [ =.2.2.,.      [ [ [ $.2.2.2.    { [ [ =.2.2.2.  { ^ | 2.2.    [ { 2.2.  ",
"  $.2.M.$.$.U.2.[ $.2.[ =.h.$.T Z / R C Y M z M v             -.-.-.T T T %.-.-.-.R T T R     -.-.#.T T R %.-.@.T T         O.[ [ [ ;.2.2.2.    | [ [ [ =.2.2.2.    [ [ [ ;.2.2.    [ [ +.2.2.  +.[ { 2.2.  ",
"  { 3.3.+.;.t.2.{ =.:.[ 4.5.=.{ ` 2.| P S $.n x S             &.-.-.! T T ` -.-.-.' T T E     -.-.-.T E E X.-.-.T T _       | [ [ [ 2.2.2.2.    { [ [ [ :.2.2.2.  O.[ [ [ 2.2.2.    [ [ $.2.2.  | [ +.2.2.  ",
"      $.} 2.2.$.[ =.$.{ 3.2.+.{ 2.2.| ~ :.{ G b               -.-.-.] T T R -.-.-. .T T T '   -.-.-.! T T  .-.-.! T (       [ [ [ { 2.2.2.      [ [ [ { 2.2.2.,.  { [ [ | 2.2.2.  | [ [ =.2.2.  [ [ #.2.,.  ",
"                    +.#.;.| { { :.+.[ | ;.[ W C                       _ _           _ _ _             _ _         _ ]       O.O.O.              O.O.O.            O.+.O.            O.O.        O.O.        ",
"                                          | |                                                                                                                                                               "
};
