/* XPM */
static char *_266e8c235aa4366cf2e53bf7a3f6784PtQuaUR2c42rJRrh[] = {
/* columns rows colors chars-per-pixel */
"53 76 80 1 ",
"  c None",
". c #515151",
"X c gray34",
"o c gray35",
"O c #5D5D5D",
"+ c gray37",
"@ c #5F5F5F",
"# c #606060",
"$ c gray38",
"% c #646464",
"& c #656565",
"* c gray40",
"= c #676767",
"- c #686868",
"; c DimGray",
": c #6A6A6A",
"> c gray42",
", c #6C6C6C",
"< c #6D6D6D",
"1 c gray43",
"2 c #6F6F6F",
"3 c gray44",
"4 c #717171",
"5 c #727272",
"6 c gray45",
"7 c #747474",
"8 c gray46",
"9 c #767676",
"0 c #777777",
"q c gray47",
"w c #797979",
"e c gray48",
"r c #7B7B7B",
"t c #7C7C7C",
"y c gray49",
"u c #7E7E7E",
"i c gray50",
"p c #808080",
"a c #818181",
"s c gray51",
"d c #838383",
"f c #848484",
"g c gray52",
"h c #868686",
"j c gray53",
"k c #888888",
"l c #898989",
"z c gray54",
"x c #8B8B8B",
"c c gray55",
"v c #8D8D8D",
"b c #8E8E8E",
"n c gray56",
"m c #909090",
"M c gray57",
"N c #929292",
"B c #939393",
"V c gray58",
"C c #959595",
"Z c gray59",
"A c #979797",
"S c #989898",
"D c gray60",
"F c #9A9A9A",
"G c #9B9B9B",
"H c gray61",
"J c #9D9D9D",
"K c gray62",
"L c #A0A0A0",
"P c gray63",
"I c #A2A2A2",
"U c gray64",
"Y c #A4A4A4",
"T c #A5A5A5",
"R c gray65",
"E c #A7A7A7",
"W c gray66",
"Q c #A9A9A9",
"! c #AAAAAA",
"~ c gray68",
/* pixels */
"                      *RWWWWWWWWWW~                  ",
"                     *:VSSSSSSSSSKW                  ",
"                    ***VSSSSKSSSSS~                  ",
"                   ****VSSSKSSSKSSW                  ",
"                  *****VKSSSKSSSSSW                  ",
"                  *****VSSSSSSmVSSW                  ",
"                  *****VSSSSSSSbd*                   ",
"                  *****VSSSSSSSSSUR                  ",
"                  *****mVSSSSSSSSSW                  ",
"                  *****mVSVVVSVSSSW                  ",
"                  *****mSVVVmdVVSVW                  ",
"                  %****bVVVVbqSVVSW                  ",
"                  *****mVVVVVVVVVVW                  ",
"                  *****bVVVVmVVVVVW                  ",
"                  *****bVmmmmVmVVVW                  ",
"                  *****mmVmVVmVVVmW                  ",
"        RRRRWRRRWRUKKKKmmmmVmmmmmV~WWRW  WWWWWWWWWWWW",
"       mbbbmbmbbbmbmbmbmmmmmmmmmmmmmmmRRmVmVVmVmVVmVW",
"     dmbbxbbbbbbbbmbbmmbmbbbmbmmmmmmmmmSmmmmmVmVmVVmW",
"  ***7xbbxxbbbbbbbbbbbbbbmbbmmbmmmbmmmmmmmmmmmmmmmmVW",
" ****4bbxxbxxxxxxbbbbbbbbbbbd47bmmbmbbmbmbmbmmmmmmmmR",
" ****4xxxxxxbj*:jxxxbxxxbbxb:**dbbbbbbbmmmbmbbbbmmmmR",
" ****4xxxjjxxt**tbbxxxxbbxxx,**jbbbbbbbbbbbbbbd*tbqqK",
" ****4xjxjxxxx77xxxxxxxxxxbbjqtbxxbxxxbbbbbbbbd*tbVx ",
" ****4xxjjxjxjxjjxxxxjxxxxxxxxxxxxxxxbxxxxxbbxbxxbbSW",
" ****4jjjxjxjxjxxjxjxjjxxjxxjxxxxxxxxxxbxxbxbxbxxbbbR",
" ****4jjjjjxjjxjjxjxxxxjjxjxjxjxxxxxxxxxxxxbxxbxbxbxU",
" ****4jjjjjjjjjxjjjjjjjxxjxjxjxxxjjxjxxxxxxbxxxxxxxxR",
" *****,,:,,,,,,,,,:,,,,jjjjjxjxjxxj,,,,,,,,,4,,,,,4, ",
" ************:O%*******djjjjjjjjjxS****:**:********  ",
" ***********%.%%*******djdjdjdjjjjK***************   ",
" *%%*%%%%%%  O%%*%*****jjjjjjjjjjjS%%%%*%%%%%*%*     ",
"                  *****ddjjq:djjdjU                  ",
"                  %****dddj7:tddjdU                  ",
"                  *****tddddddddddU                  ",
"                  ****:tddddddddddU                  ",
"                  *****ddddddtjdddU                  ",
"                  *****tdttddjddddU                  ",
"                  *****tdtdt74,::qR                  ",
"                  %****tddtddtjbbtt                  ",
"                  %****tdtddtdtdjSU                  ",
"                  ****:qttttttdtttU                  ",
"                  *****qtdtttttdttU                  ",
"                  *****ttqtttdttttU                  ",
"                  *****qtqttttttdtU                  ",
"                  %***:qttttttttttU                  ",
"                  *****qtqtqqtttqtU                  ",
"                  *****qqtqt77747tU                  ",
"                  *****qqqqqqqdd,:K                  ",
"                  *****7qqqqqqqtmm                   ",
"                  *****7q7qqqqqqqVK                  ",
"                  %****7qqqq7qqqqqU                  ",
"                  *****77q7q7qq7qqU                  ",
"                  *****77744q7qq77U                  ",
"                  *****777**477777K                  ",
"                  *****477:*477774K                  ",
"                  *****47744777777K                  ",
"                   XO**44474477777K                  ",
"                   XoO*44444474444K                  ",
"                  *****44444444444K                  ",
"                  *****44444444444K                  ",
"                  *****,,44,44,44,K                  ",
"                  *****,,4,,44,4,4K                  ",
"                  *****,4,,4,,4,4,K                  ",
"                  *****,,,,,4,4,4,K                  ",
"                  *****:,,,,,,,,,,K                  ",
"                  *****:,,,:,,,,,,K                  ",
"                  q,44477777777744K                  ",
"        *****,bbbbmbbbbbbbbbmmbbbbbbbmbbbj           ",
"        %****:dttdtdtddtdtdtdttddttddtdtdttd         ",
"        *****:tdddqqddtdtddddddttddt4ttddtdt         ",
"        *****:ddtd7qtddttdtdtttdddtd4tddtdtd         ",
"        *****:dttdtdddtddtddt:*tddtdtddtdtdt         ",
"        *****:tddtddttdttdtdt::ttddttdtdtdtd         ",
"        %****:tddtdtdtddddtddttddtddddttdddt         ",
"         *%**:qqqqtqqqqqqqqqqqqqqqqqqqtdtttd         "
};
