/* XPM */
static char *result[] = {
/* columns rows colors chars-per-pixel */
"50 50 2 1 ",
"  c #4FA4B8",
". c #92E8C0",
/* pixels */
"                                                  ",
"                                                  ",
"                                                  ",
"                 .........                        ",
"                 .........                        ",
"                 .........                        ",
"       ...............................            ",
"       ...............................            ",
"       ...............................            ",
"                       .........                  ",
"                       .........                  ",
"                       .........                  ",
"                       .........                  ",
"                                                  ",
"                                                  ",
"                                                  ",
"                                                  ",
"                                                  ",
"                                                  ",
"       ..........               ..........        ",
"       ..........               ..........        ",
"       ..........               ..........        ",
"                       .........................  ",
"                       .........................  ",
"                       .........................  ",
"                 ...................              ",
"                 ...................              ",
"                 ...................              ",
"                                                  ",
"                                                  ",
"                                                  ",
" ......                                           ",
" ......                                           ",
" ......                                           ",
" ................                                 ",
" ................                                 ",
" ................                                 ",
" ................                                 ",
"....                                              ",
"....                                              ",
"                                                  ",
"                                                  ",
"                                                  ",
"                                                  ",
"                             .........            ",
"                             .........            ",
"                             .........            ",
"                                                  ",
"                                                  ",
"                                                  "
};
